<?xml version="1.0" encoding="UTF-8" standalone="no" ?>
<!DOCTYPE svg PUBLIC "-//W3C//DTD SVG 1.1//EN" "http://www.w3.org/Graphics/SVG/1.1/DTD/svg11.dtd">
<svg xmlns="http://www.w3.org/2000/svg" xmlns:xlink="http://www.w3.org/1999/xlink" version="1.1" width="945" height="256" viewBox="0 0 945 256" xml:space="preserve">
<desc>Created with Fabric.js 5.2.4</desc>
<defs>
</defs>
<rect x="0" y="0" width="100%" height="100%" fill="transparent"></rect>
<g transform="matrix(0 0 0 0 0 0)" id="6c7f2a03-1733-4791-84b1-91a04cf1d3db"  >
</g>
<g transform="matrix(1 0 0 1 472.5 128)" id="cb15521c-eb3d-4ada-9e65-ff33a5c5f792"  >
<rect style="stroke: none; stroke-width: 1; stroke-dasharray: none; stroke-linecap: butt; stroke-dashoffset: 0; stroke-linejoin: miter; stroke-miterlimit: 4; fill: rgb(255,255,255); fill-rule: nonzero; opacity: 1; visibility: hidden;" vector-effect="non-scaling-stroke"  x="-472.5" y="-128" rx="0" ry="0" width="945" height="256" />
</g>
<g transform="matrix(0.95 0 0 0.95 142.86 127.4)"  >
<path style="stroke: rgb(244,244,244); stroke-width: 1.55; stroke-dasharray: none; stroke-linecap: butt; stroke-dashoffset: 0; stroke-linejoin: miter; stroke-miterlimit: 7.76; fill: rgb(244,244,244); fill-rule: nonzero; opacity: 1;" vector-effect="non-scaling-stroke"  transform=" translate(-128.29, -128.29)" d="M 69.91 0.78 L 186.68 0.78 C 224.85000000000002 0.78 255.81 31.740000000000002 255.81 69.91 L 255.81 186.68 C 255.81 224.85000000000002 224.85 255.81 186.68 255.81 L 69.91000000000001 255.81 C 31.73 255.81 0.78 224.86 0.78 186.68 L 0.78 69.91000000000001 C 0.78 31.74000000000001 31.740000000000002 0.7800000000000153 69.91 0.7800000000000153 Z" stroke-linecap="round" />
</g>
<g transform="matrix(0.95 0 0 0.95 143.09 129.74)"  >
<path style="stroke: none; stroke-width: 1; stroke-dasharray: none; stroke-linecap: butt; stroke-dashoffset: 0; stroke-linejoin: miter; stroke-miterlimit: 4; fill: rgb(78,92,166); fill-rule: nonzero; opacity: 1;" vector-effect="non-scaling-stroke"  transform=" translate(-128.27, -130.5)" d="M 83.3 209.6 L 56.17999999999999 209.6 C 54.669999999999995 209.6 53.35999999999999 209.03 52.22999999999999 207.9 C 51.09999999999999 206.77 50.52999999999999 205.46 50.52999999999999 203.95000000000002 L 50.52999999999999 203.95000000000002 L 50.52999999999999 57.05 C 50.52999999999999 55.39 51.09999999999999 54.029999999999994 52.22999999999999 52.98 C 53.35999999999999 51.93 54.66999999999999 51.4 56.17999999999999 51.4 L 80.58999999999999 51.4 C 83.14999999999999 51.4 85.02999999999999 52.04 86.24 53.32 C 87.44999999999999 54.6 88.19999999999999 55.62 88.5 56.37 L 88.5 56.37 L 128.28 127.56 L 168.05 56.370000000000005 C 168.5 55.620000000000005 169.3 54.6 170.43 53.32000000000001 C 171.56 52.040000000000006 173.4 51.400000000000006 175.96 51.400000000000006 L 200.14000000000001 51.400000000000006 C 201.8 51.400000000000006 203.20000000000002 51.93000000000001 204.33 52.980000000000004 C 205.46 54.03 206.02 55.39 206.02 57.050000000000004 L 206.02 57.050000000000004 L 206.02 203.95000000000002 C 206.02 205.46 205.46 206.77 204.33 207.9 C 203.20000000000002 209.03 201.8 209.6 200.14000000000001 209.6 L 173.25 209.6 C 171.59 209.6 170.2 209.03 169.07 207.9 C 167.94 206.77 167.37 205.46 167.37 203.95000000000002 L 167.37 203.95000000000002 L 167.37 119.20000000000002 L 142.06 166.43 C 141.31 167.78 140.33 168.99 139.12 170.05 C 137.92000000000002 171.10000000000002 136.26 171.63000000000002 134.15 171.63000000000002 L 122.4 171.63000000000002 C 120.29 171.63000000000002 118.64 171.10000000000002 117.43 170.05 C 116.22000000000001 168.99 115.24000000000001 167.78 114.49000000000001 166.43 L 114.49000000000001 166.43 L 88.95000000000002 119.20000000000002 L 88.95000000000002 203.95000000000002 C 88.95000000000002 205.46 88.42000000000002 206.77 87.37000000000002 207.9 C 86.32000000000002 209.03 84.96000000000002 209.6 83.30000000000001 209.6 L 83.30000000000001 209.6 Z" stroke-linecap="round" />
</g>
<g transform="matrix(0.95 0 0 0.95 382.92 134.86)"  >
<path style="stroke: none; stroke-width: 1; stroke-dasharray: none; stroke-linecap: butt; stroke-dashoffset: 0; stroke-linejoin: miter; stroke-miterlimit: 4; fill: rgb(255,255,255); fill-rule: nonzero; opacity: 1;" vector-effect="non-scaling-stroke"  transform=" translate(-379.39, -135.79)" d="M 335.99 199.49 L 327.07 199.49 C 325.86 199.49 324.86 199.10000000000002 324.07 198.31 C 323.28 197.52 322.88 196.52 322.88 195.31 L 322.88 195.31 L 322.88 76.46000000000001 C 322.88 75.13000000000001 323.28 74.07000000000001 324.07 73.28 C 324.86 72.49 325.86 72.09 327.07 72.09 L 336.17 72.09 C 337.62 72.09 338.71000000000004 72.46000000000001 339.44 73.19 C 340.17 73.92 340.66 74.52 340.9 75.00999999999999 L 340.9 75.00999999999999 L 379.29999999999995 148.52999999999997 L 418.06999999999994 75.00999999999998 C 418.30999999999995 74.51999999999998 418.75999999999993 73.91999999999997 419.42999999999995 73.18999999999998 C 420.09999999999997 72.45999999999998 421.15999999999997 72.08999999999999 422.61999999999995 72.08999999999999 L 431.53999999999996 72.08999999999999 C 432.86999999999995 72.08999999999999 433.92999999999995 72.49 434.71999999999997 73.27999999999999 C 435.51 74.07 435.9 75.12999999999998 435.9 76.46 L 435.9 76.46 L 435.9 195.31 C 435.9 196.52 435.51 197.52 434.71999999999997 198.31 C 433.92999999999995 199.1 432.86999999999995 199.49 431.53999999999996 199.49 L 422.61999999999995 199.49 C 421.40999999999997 199.49 420.40999999999997 199.10000000000002 419.61999999999995 198.31 C 418.8299999999999 197.52 418.42999999999995 196.52 418.42999999999995 195.31 L 418.42999999999995 195.31 L 418.42999999999995 105.76 L 388.03999999999996 165.10000000000002 C 387.54999999999995 166.31000000000003 386.81999999999994 167.25000000000003 385.84999999999997 167.92000000000002 C 384.87999999999994 168.59 383.66999999999996 168.92000000000002 382.21 168.92000000000002 L 376.57 168.92000000000002 C 375 168.92000000000002 373.78 168.59 372.93 167.92000000000002 C 372.08 167.25000000000003 371.36 166.31 370.75 165.10000000000002 L 370.75 165.10000000000002 L 340.17 105.76000000000002 L 340.17 195.31 C 340.17 196.52 339.78000000000003 197.52 338.99 198.31 C 338.2 199.1 337.2 199.49 335.99 199.49 L 335.99 199.49 Z" stroke-linecap="round" />
</g>
<g transform="matrix(0.95 0 0 0.95 473.97 133.29)"  >
<path style="stroke: none; stroke-width: 1; stroke-dasharray: none; stroke-linecap: butt; stroke-dashoffset: 0; stroke-linejoin: miter; stroke-miterlimit: 4; fill: rgb(255,255,255); fill-rule: nonzero; opacity: 1;" vector-effect="non-scaling-stroke"  transform=" translate(-474.53, -134.16)" d="M 478.9 199.49 L 470.16999999999996 199.49 C 468.96 199.49 467.94999999999993 199.10000000000002 467.15999999999997 198.31 C 466.36999999999995 197.52 465.97999999999996 196.52 465.97999999999996 195.31 L 465.97999999999996 195.31 L 465.97999999999996 109.04 C 465.97999999999996 107.83000000000001 466.36999999999995 106.83000000000001 467.15999999999997 106.04 C 467.95 105.25 468.96 104.85000000000001 470.16999999999996 104.85000000000001 L 478.9 104.85000000000001 C 480.10999999999996 104.85000000000001 481.10999999999996 105.25000000000001 481.9 106.04 C 482.69 106.83000000000001 483.09 107.83000000000001 483.09 109.04 L 483.09 109.04 L 483.09 195.31 C 483.09 196.52 482.69 197.52 481.9 198.31 C 481.10999999999996 199.1 480.10999999999996 199.49 478.9 199.49 L 478.9 199.49 Z M 480.17999999999995 87.2 L 468.7099999999999 87.2 C 467.49999999999994 87.2 466.49999999999994 86.81 465.7099999999999 86.02 C 464.9199999999999 85.22999999999999 464.5199999999999 84.22 464.5199999999999 83.00999999999999 L 464.5199999999999 83.00999999999999 L 464.5199999999999 73.19 C 464.5199999999999 71.98 464.9199999999999 70.94 465.7099999999999 70.09 C 466.49999999999994 69.24000000000001 467.49999999999994 68.82000000000001 468.7099999999999 68.82000000000001 L 480.17999999999995 68.82000000000001 C 481.38999999999993 68.82000000000001 482.41999999999996 69.24000000000001 483.2699999999999 70.09 C 484.11999999999995 70.94 484.5399999999999 71.98 484.5399999999999 73.19 L 484.5399999999999 73.19 L 484.5399999999999 83.00999999999999 C 484.5399999999999 84.21999999999998 484.1199999999999 85.22999999999999 483.2699999999999 86.02 C 482.4199999999999 86.81 481.38999999999993 87.2 480.17999999999995 87.2 L 480.17999999999995 87.2 Z" stroke-linecap="round" />
</g>
<g transform="matrix(0.95 0 0 0.95 544.16 150.56)"  >
<path style="stroke: none; stroke-width: 1; stroke-dasharray: none; stroke-linecap: butt; stroke-dashoffset: 0; stroke-linejoin: miter; stroke-miterlimit: 4; fill: rgb(255,255,255); fill-rule: nonzero; opacity: 1;" vector-effect="non-scaling-stroke"  transform=" translate(-548.21, -152.17)" d="M 549.11 201.31 L 549.11 201.31 C 540.49 201.31 533.0600000000001 199.64000000000001 526.8100000000001 196.31 C 520.5600000000001 192.97 515.74 188.18 512.34 181.93 C 508.95000000000005 175.68 507.13000000000005 168.19 506.88000000000005 159.45000000000002 L 506.88000000000005 159.45000000000002 C 506.76000000000005 157.63000000000002 506.70000000000005 155.20000000000002 506.70000000000005 152.17000000000002 C 506.70000000000005 149.14000000000001 506.76000000000005 146.71 506.88000000000005 144.89000000000001 L 506.88000000000005 144.89000000000001 C 507.13000000000005 136.16000000000003 508.95000000000005 128.67000000000002 512.34 122.42000000000002 C 515.74 116.17000000000002 520.5600000000001 111.37000000000002 526.8100000000001 108.04000000000002 C 533.0600000000001 104.70000000000002 540.49 103.03000000000002 549.11 103.03000000000002 L 549.11 103.03000000000002 C 556.14 103.03000000000002 562.1800000000001 104.00000000000001 567.22 105.95000000000002 C 572.25 107.89000000000001 576.4100000000001 110.38000000000002 579.6800000000001 113.41000000000001 C 582.96 116.44000000000001 585.4200000000001 119.72000000000001 587.0500000000001 123.24000000000001 C 588.69 126.75000000000001 589.57 130.09 589.69 133.25 L 589.69 133.25 C 589.8100000000001 134.46 589.45 135.43 588.6 136.16 C 587.75 136.89 586.72 137.25 585.51 137.25 L 576.77 137.25 C 575.56 137.25 574.65 136.98 574.04 136.43 C 573.43 135.88 572.8299999999999 134.94 572.2199999999999 133.61 L 572.2199999999999 133.61 C 570.0299999999999 127.66000000000001 567.06 123.48000000000002 563.3 121.05000000000001 C 559.54 118.62 554.87 117.41000000000001 549.29 117.41000000000001 L 549.29 117.41000000000001 C 542.01 117.41000000000001 536.0899999999999 119.66000000000001 531.54 124.15 C 526.99 128.64000000000001 524.54 135.85 524.17 145.8 L 524.17 145.8 C 524.05 150.17000000000002 524.05 154.42000000000002 524.17 158.54000000000002 L 524.17 158.54000000000002 C 524.54 168.61 526.99 175.86 531.54 180.29000000000002 C 536.0899999999999 184.72000000000003 542.01 186.94000000000003 549.29 186.94000000000003 L 549.29 186.94000000000003 C 554.87 186.94000000000003 559.54 185.73000000000002 563.3 183.30000000000004 C 567.06 180.87000000000003 570.03 176.69000000000003 572.2199999999999 170.74000000000004 L 572.2199999999999 170.74000000000004 C 572.8299999999999 169.41000000000003 573.43 168.44000000000003 574.04 167.83000000000004 C 574.65 167.22000000000006 575.56 166.92000000000004 576.77 166.92000000000004 L 585.51 166.92000000000004 C 586.72 166.92000000000004 587.75 167.31000000000003 588.6 168.10000000000005 C 589.45 168.89000000000004 589.8100000000001 169.89000000000004 589.69 171.10000000000005 L 589.69 171.10000000000005 C 589.57 173.65000000000006 589.0200000000001 176.26000000000005 588.0500000000001 178.93000000000006 C 587.08 181.60000000000005 585.5400000000001 184.30000000000007 583.4100000000001 187.03000000000006 C 581.2900000000001 189.76000000000005 578.6500000000001 192.18000000000006 575.5000000000001 194.31000000000006 C 572.3400000000001 196.43000000000006 568.5800000000002 198.13000000000005 564.2100000000002 199.40000000000006 C 559.8400000000001 200.67000000000007 554.8100000000002 201.31000000000006 549.1100000000001 201.31000000000006 Z" stroke-linecap="round" />
</g>
<g transform="matrix(0.95 0 0 0.95 645.81 133.98)"  >
<path style="stroke: none; stroke-width: 1; stroke-dasharray: none; stroke-linecap: butt; stroke-dashoffset: 0; stroke-linejoin: miter; stroke-miterlimit: 4; fill: rgb(255,255,255); fill-rule: nonzero; opacity: 1;" vector-effect="non-scaling-stroke"  transform=" translate(-654.68, -134.88)" d="M 625.75 199.49 L 616.65 199.49 C 615.4399999999999 199.49 614.4399999999999 199.10000000000002 613.65 198.31 C 612.86 197.52 612.4599999999999 196.52 612.4599999999999 195.31 L 612.4599999999999 195.31 L 612.4599999999999 74.46000000000001 C 612.4599999999999 73.25000000000001 612.8599999999999 72.25000000000001 613.65 71.46000000000001 C 614.4399999999999 70.67 615.4399999999999 70.27000000000001 616.65 70.27000000000001 L 625.75 70.27000000000001 C 627.08 70.27000000000001 628.11 70.67000000000002 628.84 71.46000000000001 C 629.57 72.25000000000001 629.94 73.25000000000001 629.94 74.46000000000001 L 629.94 74.46000000000001 L 629.94 116.87 C 633.21 112.74000000000001 637.22 109.41000000000001 641.95 106.86 C 646.6800000000001 104.31 652.69 103.03 659.97 103.03 L 659.97 103.03 C 667.86 103.03 674.5600000000001 104.76 680.08 108.22 C 685.6 111.67999999999999 689.7900000000001 116.47 692.64 122.6 C 695.49 128.73 696.91 135.85 696.91 143.98 L 696.91 143.98 L 696.91 195.31 C 696.91 196.52 696.55 197.52 695.8199999999999 198.31 C 695.0899999999999 199.1 694.06 199.49 692.7299999999999 199.49 L 683.6299999999999 199.49 C 682.4199999999998 199.49 681.4099999999999 199.10000000000002 680.6199999999999 198.31 C 679.8299999999999 197.52 679.4399999999999 196.52 679.4399999999999 195.31 L 679.4399999999999 195.31 L 679.4399999999999 144.89 C 679.4399999999999 136.39999999999998 677.38 129.75 673.2499999999999 124.95999999999998 C 669.1199999999999 120.16999999999997 663.0599999999998 117.77999999999997 655.0499999999998 117.77999999999997 L 655.0499999999998 117.77999999999997 C 647.5299999999999 117.77999999999997 641.4599999999998 120.16999999999997 636.8499999999998 124.95999999999998 C 632.2399999999998 129.74999999999997 629.9399999999998 136.39999999999998 629.9399999999998 144.89 L 629.9399999999998 144.89 L 629.9399999999998 195.31 C 629.9399999999998 196.52 629.5699999999998 197.52 628.8399999999998 198.31 C 628.1099999999998 199.1 627.0799999999998 199.49 625.7499999999998 199.49 L 625.7499999999998 199.49 Z" stroke-linecap="round" />
</g>
<g transform="matrix(0.95 0 0 0.95 744.2 150.56)"  >
<path style="stroke: none; stroke-width: 1; stroke-dasharray: none; stroke-linecap: butt; stroke-dashoffset: 0; stroke-linejoin: miter; stroke-miterlimit: 4; fill: rgb(255,255,255); fill-rule: nonzero; opacity: 1;" vector-effect="non-scaling-stroke"  transform=" translate(-757.73, -152.17)" d="M 750.35 201.31 L 750.35 201.31 C 744.28 201.31 738.76 200.1 733.7900000000001 197.67000000000002 C 728.8200000000002 195.24000000000004 724.8100000000001 191.97000000000003 721.7800000000001 187.85000000000002 C 718.7500000000001 183.72000000000003 717.2300000000001 179.05 717.2300000000001 173.83 L 717.2300000000001 173.83 C 717.2300000000001 165.46 720.6300000000001 158.78 727.4200000000002 153.81 C 734.2100000000002 148.84 743.0700000000002 145.56 753.9900000000002 143.98 L 753.9900000000002 143.98 L 781.1100000000002 140.16 L 781.1100000000002 134.88 C 781.1100000000002 129.06 779.4400000000003 124.50999999999999 776.1000000000003 121.22999999999999 C 772.7700000000002 117.96 767.3400000000003 116.32 759.8200000000003 116.32 L 759.8200000000003 116.32 C 754.4800000000002 116.32 750.1100000000002 117.41 746.7100000000003 119.6 C 743.3200000000003 121.78 740.9500000000003 124.57 739.6100000000002 127.97 L 739.6100000000002 127.97 C 738.8800000000002 129.79 737.6100000000002 130.7 735.7900000000002 130.7 L 727.6000000000001 130.7 C 726.2700000000001 130.7 725.2700000000001 130.29999999999998 724.6000000000001 129.51 C 723.9300000000002 128.72 723.6000000000001 127.77999999999999 723.6000000000001 126.69 L 723.6000000000001 126.69 C 723.6000000000001 124.87 724.3000000000002 122.63 725.6900000000002 119.96 C 727.0800000000002 117.28999999999999 729.2400000000001 114.67999999999999 732.1500000000002 112.13 C 735.0600000000002 109.58 738.7900000000002 107.42999999999999 743.3400000000003 105.67 C 747.8900000000002 103.91 753.4500000000003 103.03 760.0000000000002 103.03 L 760.0000000000002 103.03 C 767.2800000000002 103.03 773.4100000000002 103.97 778.3800000000002 105.85 C 783.3500000000003 107.74 787.2700000000002 110.25999999999999 790.1200000000002 113.41 C 792.9700000000003 116.56 795.0400000000002 120.14 796.3100000000003 124.14999999999999 C 797.5800000000003 128.14999999999998 798.2200000000003 132.20999999999998 798.2200000000003 136.34 L 798.2200000000003 136.34 L 798.2200000000003 195.31 C 798.2200000000003 196.52 797.8200000000003 197.52 797.0300000000002 198.31 C 796.2400000000002 199.1 795.2400000000002 199.49 794.0300000000002 199.49 L 785.6600000000002 199.49 C 784.3300000000002 199.49 783.3000000000002 199.10000000000002 782.5700000000002 198.31 C 781.8400000000001 197.52 781.4700000000001 196.52 781.4700000000001 195.31 L 781.4700000000001 195.31 L 781.4700000000001 187.48 C 779.9000000000001 189.67 777.7700000000001 191.82 775.1000000000001 193.94 C 772.4300000000002 196.07 769.1000000000001 197.82999999999998 765.0900000000001 199.22 C 761.0900000000001 200.60999999999999 756.1800000000002 201.31 750.3500000000001 201.31 Z M 754.1700000000001 187.66 L 754.1700000000001 187.66 C 759.1500000000001 187.66 763.7 186.6 767.82 184.48 C 771.95 182.35 775.19 179.04999999999998 777.5600000000001 174.56 C 779.9300000000001 170.07000000000002 781.11 164.43 781.11 157.63 L 781.11 157.63 L 781.11 152.54 L 760 155.63 C 751.39 156.84 744.89 158.88 740.52 161.73 C 736.15 164.57999999999998 733.97 168.19 733.97 172.56 L 733.97 172.56 C 733.97 175.95 734.97 178.77 736.97 181.02 C 738.98 183.27 741.53 184.94 744.62 186.03 C 747.71 187.12 750.9 187.66 754.17 187.66 Z" stroke-linecap="round" />
</g>
<g transform="matrix(0.95 0 0 0.95 844.81 150.56)"  >
<path style="stroke: none; stroke-width: 1; stroke-dasharray: none; stroke-linecap: butt; stroke-dashoffset: 0; stroke-linejoin: miter; stroke-miterlimit: 4; fill: rgb(255,255,255); fill-rule: nonzero; opacity: 1;" vector-effect="non-scaling-stroke"  transform=" translate(-863.13, -152.17)" d="M 863.21 201.31 L 863.21 201.31 C 850.6 201.31 840.59 197.46 833.1800000000001 189.76 C 825.7800000000001 182.04999999999998 821.72 171.53 820.99 158.18 L 820.99 158.18 C 820.87 156.6 820.8100000000001 154.57 820.8100000000001 152.08 C 820.8100000000001 149.59000000000003 820.87 147.56 820.99 145.99 L 820.99 145.99 C 821.48 137.37 823.48 129.82 827 123.33000000000001 C 830.51 116.84000000000002 835.33 111.83000000000001 841.46 108.31000000000002 C 847.59 104.79000000000002 854.7800000000001 103.03000000000002 863.0300000000001 103.03000000000002 L 863.0300000000001 103.03000000000002 C 872.2500000000001 103.03000000000002 879.9900000000001 104.97000000000001 886.2400000000001 108.86000000000001 C 892.4900000000001 112.74000000000001 897.2500000000001 118.26000000000002 900.5200000000001 125.42000000000002 C 903.8000000000001 132.58 905.44 140.95000000000002 905.44 150.54000000000002 L 905.44 150.54000000000002 L 905.44 153.63000000000002 C 905.44 154.96000000000004 905.0400000000001 155.99000000000004 904.25 156.72000000000003 C 903.46 157.45000000000002 902.46 157.82000000000002 901.25 157.82000000000002 L 838.28 157.82000000000002 L 838.28 159.45000000000002 L 838.28 159.45000000000002 C 838.52 164.43 839.61 169.07000000000002 841.56 173.38000000000002 C 843.5 177.69000000000003 846.3199999999999 181.17000000000002 850.02 183.84000000000003 C 853.72 186.51000000000002 858.06 187.85000000000002 863.03 187.85000000000002 L 863.03 187.85000000000002 C 867.4 187.85000000000002 871.04 187.18000000000004 873.9499999999999 185.84000000000003 C 876.8599999999999 184.51000000000002 879.2299999999999 183.02000000000004 881.05 181.38000000000002 C 882.87 179.75000000000003 884.0799999999999 178.44000000000003 884.6899999999999 177.47000000000003 L 884.6899999999999 177.47000000000003 C 885.78 176.02000000000004 886.63 175.14000000000001 887.2399999999999 174.83000000000004 C 887.8499999999999 174.53000000000003 888.8199999999999 174.38000000000005 890.1499999999999 174.38000000000005 L 899.0699999999998 174.38000000000005 C 900.1599999999999 174.38000000000005 901.0999999999998 174.71000000000006 901.8899999999999 175.38000000000005 C 902.6799999999998 176.05000000000004 903.0099999999999 176.99000000000007 902.8899999999999 178.20000000000005 L 902.8899999999999 178.20000000000005 C 902.7699999999999 180.02000000000004 901.7999999999998 182.23000000000005 899.9799999999999 184.84000000000003 C 898.1599999999999 187.45000000000005 895.5799999999999 190.03000000000003 892.2399999999999 192.58000000000004 C 888.9099999999999 195.13000000000005 884.7799999999999 197.22000000000003 879.8699999999999 198.86000000000004 C 874.9599999999999 200.49000000000004 869.3999999999999 201.31000000000003 863.2099999999999 201.31000000000003 Z M 838.2800000000001 144.71 L 838.2800000000001 145.26000000000002 L 888.1500000000001 145.26000000000002 L 888.1500000000001 144.71 C 888.1500000000001 139.25 887.1500000000001 134.4 885.1400000000001 130.15 C 883.1400000000001 125.9 880.2600000000001 122.54 876.5000000000001 120.05000000000001 C 872.7400000000001 117.56000000000002 868.2500000000001 116.32000000000001 863.0300000000001 116.32000000000001 L 863.0300000000001 116.32000000000001 C 857.82 116.32000000000001 853.3600000000001 117.56 849.6500000000001 120.05000000000001 C 845.95 122.54 843.1300000000001 125.9 841.19 130.15 C 839.25 134.4 838.2800000000001 139.25 838.2800000000001 144.71 L 838.2800000000001 144.71 Z" stroke-linecap="round" />
</g>
<g transform="matrix(0.95 0 0 0.95 915.42 133.98)"  >
<path style="stroke: none; stroke-width: 1; stroke-dasharray: none; stroke-linecap: butt; stroke-dashoffset: 0; stroke-linejoin: miter; stroke-miterlimit: 4; fill: rgb(255,255,255); fill-rule: nonzero; opacity: 1;" vector-effect="non-scaling-stroke"  transform=" translate(-936.91, -134.88)" d="M 941.19 199.49 L 932.6300000000001 199.49 C 931.4200000000001 199.49 930.4200000000001 199.10000000000002 929.6300000000001 198.31 C 928.8400000000001 197.51999999999998 928.4500000000002 196.52 928.4500000000002 195.31 L 928.4500000000002 195.31 L 928.4500000000002 74.46000000000001 C 928.4500000000002 73.25000000000001 928.8400000000001 72.25000000000001 929.6300000000001 71.46000000000001 C 930.4200000000001 70.67 931.4200000000001 70.27000000000001 932.6300000000001 70.27000000000001 L 941.19 70.27000000000001 C 942.5200000000001 70.27000000000001 943.5500000000001 70.67000000000002 944.2800000000001 71.46000000000001 C 945.0100000000001 72.25000000000001 945.3700000000001 73.25000000000001 945.3700000000001 74.46000000000001 L 945.3700000000001 74.46000000000001 L 945.3700000000001 195.31 C 945.3700000000001 196.52 945.0100000000001 197.52 944.2800000000001 198.31 C 943.5500000000001 199.1 942.5200000000001 199.49 941.19 199.49 L 941.19 199.49 Z" stroke-linecap="round" />
</g>
<g transform="matrix(0 0 0 0 0 0)"  >
<g style=""   >
</g>
</g>
<g transform="matrix(0 0 0 0 0 0)"  >
<g style=""   >
</g>
</g>
<g transform="matrix(0 0 0 0 0 0)"  >
<g style=""   >
</g>
</g>
<g transform="matrix(0 0 0 0 0 0)"  >
<g style=""   >
</g>
</g>
<g transform="matrix(0 0 0 0 0 0)"  >
<g style=""   >
</g>
</g>
<g transform="matrix(0 0 0 0 0 0)"  >
<g style=""   >
</g>
</g>
<g transform="matrix(0 0 0 0 0 0)"  >
<g style=""   >
</g>
</g>
<g transform="matrix(0 0 0 0 0 0)"  >
<g style=""   >
</g>
</g>
<g transform="matrix(NaN NaN NaN NaN 0 0)"  >
<g style=""   >
</g>
</g>
<g transform="matrix(NaN NaN NaN NaN 0 0)"  >
<g style=""   >
</g>
</g>
<g transform="matrix(NaN NaN NaN NaN 0 0)"  >
<g style=""   >
</g>
</g>
<g transform="matrix(NaN NaN NaN NaN 0 0)"  >
<g style=""   >
</g>
</g>
<g transform="matrix(NaN NaN NaN NaN 0 0)"  >
<g style=""   >
</g>
</g>
<g transform="matrix(NaN NaN NaN NaN 0 0)"  >
<g style=""   >
</g>
</g>
<g transform="matrix(NaN NaN NaN NaN 0 0)"  >
<g style=""   >
</g>
</g>
<g transform="matrix(NaN NaN NaN NaN 0 0)"  >
<g style=""   >
</g>
</g>
<g transform="matrix(NaN NaN NaN NaN 0 0)"  >
<g style=""   >
</g>
</g>
<g transform="matrix(NaN NaN NaN NaN 0 0)"  >
<g style=""   >
</g>
</g>
</svg>